<?xml version="1.0" encoding="UTF-8" standalone="no"?>
<svg
   id="autopay-logo"
   width="90"
   height="90"
   viewBox="0 0 45 45"
   fill="none"
   version="1.1"
   sodipodi:docname="ap.svg"
   inkscape:version="1.2.1 (8a69933317, 2022-10-28, custom)"
   xmlns:inkscape="http://www.inkscape.org/namespaces/inkscape"
   xmlns:sodipodi="http://sodipodi.sourceforge.net/DTD/sodipodi-0.dtd"
   xmlns="http://www.w3.org/2000/svg"
   xmlns:svg="http://www.w3.org/2000/svg">
  <defs
     id="defs30" />
  <sodipodi:namedview
     id="namedview28"
     pagecolor="#ffffff"
     bordercolor="#666666"
     borderopacity="1.0"
     inkscape:showpageshadow="2"
     inkscape:pageopacity="0.0"
     inkscape:pagecheckerboard="0"
     inkscape:deskcolor="#d1d1d1"
     showgrid="false"
     inkscape:zoom="8.7555556"
     inkscape:cx="45"
     inkscape:cy="45"
     inkscape:window-width="1452"
     inkscape:window-height="991"
     inkscape:window-x="26"
     inkscape:window-y="23"
     inkscape:window-maximized="0"
     inkscape:current-layer="autopay-logo" />
  <path
     d="M 22.417644,0 C 10.151426,0 0,10.151426 0,22.558762 c 0,12.407369 10.151426,22.558649 22.558762,22.417644 12.407369,0 22.417644,-10.010275 22.417644,-22.417644 C 45.117411,10.151426 34.966131,0 22.417644,0 Z m 0,42.015513 c -10.715302,0 -19.4568072,-8.741336 -19.4568072,-19.456751 0,-10.715415 8.8825102,-19.4569421 19.5979252,-19.4569421 10.715415,0 19.456751,8.7415271 19.456751,19.4569421 0,10.715415 -8.741336,19.456751 -19.597869,19.456751 z m 8.036645,-26.506357 c -3.806814,0 -7.049606,3.242792 -7.049606,7.049606 v 12.266251 c 1.550837,0 2.819887,-1.268938 2.819887,-2.819887 v -9.446364 c 0,-2.255978 1.832961,-4.088826 4.088714,-4.229831 2.255752,0 4.088713,1.83296 4.229718,4.088713 0,2.255865 -1.83296,4.088713 -4.088713,4.229831 -0.986927,0 -1.973966,-0.281899 -2.678882,-0.987039 l -0.282011,-0.281787 v 3.524803 c 3.524803,1.691843 7.754522,0.140781 9.305359,-3.243016 1.691955,-3.524803 0.141005,-7.75441 -3.24268,-9.305359 -1.12782,-0.564022 -2.114859,-0.845921 -3.101786,-0.845921 z m -11.702341,3.383797 v 3.665809 c 0,2.255752 -1.832961,4.088713 -4.088826,4.088713 -2.255865,0 -4.088724,-1.832961 -4.088724,-4.088713 0,-2.255978 1.832859,-4.088826 4.088724,-4.088826 0.986927,0 1.973966,0.282012 2.819887,1.127933 l 0.141006,0.141005 v -0.845921 c 0,-0.846033 0.282011,-1.550949 0.704916,-2.255865 v -0.141005 c -3.383798,-1.973967 -7.61355,-0.986927 -9.5874263,2.39687 -1.9738874,3.383685 -0.9869605,7.613404 2.3968483,9.58737 2.537842,1.550837 5.92164,1.26905 8.036499,-0.704916 0.564022,0.845922 1.550949,1.550837 2.537876,1.550837 V 16.073066 c -1.550837,0 -2.96078,1.268938 -2.96078,2.819887 z"
     fill="#4298b5"
     id="path25"
     style="stroke-width:1.12445" />
</svg>
