<?xml version="1.0" encoding="UTF-8" standalone="no"?>
<svg
   id="rategenius-logo"
   width="90"
   height="90"
   viewBox="0 0 45 45"
   fill="none"
   version="1.1"
   sodipodi:docname="rg.svg"
   inkscape:version="1.2.1 (8a69933317, 2022-10-28, custom)"
   xmlns:inkscape="http://www.inkscape.org/namespaces/inkscape"
   xmlns:sodipodi="http://sodipodi.sourceforge.net/DTD/sodipodi-0.dtd"
   xmlns="http://www.w3.org/2000/svg"
   xmlns:svg="http://www.w3.org/2000/svg">
  <sodipodi:namedview
     id="namedview55"
     pagecolor="#ffffff"
     bordercolor="#666666"
     borderopacity="1.0"
     inkscape:showpageshadow="2"
     inkscape:pageopacity="0.0"
     inkscape:pagecheckerboard="0"
     inkscape:deskcolor="#d1d1d1"
     showgrid="false"
     inkscape:zoom="8.7555556"
     inkscape:cx="45"
     inkscape:cy="45"
     inkscape:window-width="1452"
     inkscape:window-height="991"
     inkscape:window-x="26"
     inkscape:window-y="23"
     inkscape:window-maximized="0"
     inkscape:current-layer="rategenius-logo" />
  <g
     clip-path="url(#clip0_117_893)"
     id="g47"
     transform="scale(1.1254393)">
    <path
       d="m 18.6741,11.509 c -0.0181,0.2364 -0.0906,0.3819 -0.1994,0.4909 -0.1088,0.091 -0.272,0.1273 -0.5077,0.1091 -0.3988,-0.0363 -0.8339,-0.0545 -1.2691,-0.0363 -0.7796,0.0182 -1.3235,0.2 -1.6861,0.5636 -0.3626,0.3636 -0.5258,0.9091 -0.5439,1.6909 -0.0181,1.5273 -0.0181,3.0182 -0.0181,4.1637 0,0.6727 0,1.3454 0,2 0,0.6909 0,1.3818 0,2.0727 0,0.2545 -0.0182,0.4182 -0.0363,0.5636 -0.0363,0.1637 -0.0906,0.2909 -0.1813,0.3818 -0.0906,0.0909 -0.1994,0.1455 -0.3807,0.1819 -0.1269,0.0363 -0.3082,0.0363 -0.5439,0.0363 -0.1995,0 -0.3989,0 -0.5621,-0.0363 -0.1632,-0.0364 -0.2901,-0.091 -0.3807,-0.1637 -0.0907,-0.0909 -0.1451,-0.2182 -0.1813,-0.3818 -0.0182,-0.1273 -0.0363,-0.2909 -0.0363,-0.5636 -0.0181,-0.8909 0,-1.7819 0,-2.7819 0,-0.4727 0,-0.9272 0,-1.4 v -3.8545 c 0,-0.1636 0,-4.2 0,-4.2 0,-0.49091 0.0725,-0.83636 0.1995,-1.09091 0.0725,-0.14545 0.1813,-0.23636 0.29,-0.30909 0.1269,-0.07273 0.272,-0.09091 0.4352,-0.09091 0.2538,0 0.5439,0.03637 0.7614,0.27273 0.1995,0.21818 0.3083,0.58182 0.3264,1.12728 0,0.0727 0,0.1454 0,0.2364 0.8521,-0.4728 1.9218,-0.65459 3.209,-0.58186 0.272,0.01818 0.4896,0.03636 0.6527,0.07272 0.1995,0.03634 0.3445,0.10914 0.4352,0.21814 0.1087,0.1091 0.1631,0.2728 0.1813,0.5091 0.0544,0.1819 0.0544,0.4182 0.0362,0.8 z"
       fill="#80a53f"
       id="path41" />
    <path
       d="M 19.9268,0 C 9.01796,0 0,9.01818 0,20.0727 0,31.1091 9.01796,40.1455 20.0722,40 31.0901,40 39.999,31.0909 39.999,20.0727 40.1081,9.03636 31.0901,0 19.9268,0 Z m 0,37.3636 c -9.5271,0 -17.2905,-7.7818 -17.2905,-17.3091 0,-9.5272 7.8907,-17.30905 17.4178,-17.30905 9.527,0 17.2904,7.78185 17.2904,17.30905 0,9.5273 -7.7634,17.3091 -17.4177,17.3091 z"
       fill="#80a53f"
       id="path43" />
    <path
       d="m 28.3558,27.8362 c -0.1088,-0.7091 -0.3807,-1.2909 -0.8159,-1.7272 -0.417,-0.4182 -0.979,-0.6909 -1.668,-0.8182 -0.8158,-0.1455 -1.6861,-0.2 -2.5201,-0.2546 C 22.953,25.018 22.536,24.9817 22.119,24.9453 v 0 C 21.9014,24.9271 21.6838,24.909 21.4844,24.8908 h -0.0181 c -0.6165,-0.0364 -1.2329,-0.0909 -1.8312,-0.2 0,0 -0.4532,-0.1273 -0.4532,-0.5273 v -0.0364 c 0,-0.1091 0.0181,-0.2727 0.0906,-0.3818 l 0.0181,-0.0182 c 0.1088,-0.1272 0.2357,-0.2727 0.6165,-0.3272 0.0725,-0.0182 0.145,-0.0182 0.2538,-0.0182 h 0.0906 c 0.3989,-0.0364 0.8159,-0.0364 1.2148,-0.0546 0.9609,-0.0363 1.9399,-0.0909 2.9008,-0.2181 2.4295,-0.3273 3.2635,-1.7637 3.5354,-2.9273 0.3445,-1.4909 0.5621,-3.4 -0.8702,-5 0.3445,-0.3637 0.7252,-0.7818 1.1241,-1.1637 0.1994,-0.2181 0.3082,-0.4181 0.29,-0.6363 0,-0.1091 -0.0362,-0.2182 -0.1087,-0.3091 -0.0544,-0.0909 -0.1451,-0.1818 -0.2357,-0.2727 -0.0363,-0.0364 -0.0907,-0.0728 -0.1269,-0.1091 -0.0363,-0.0364 -0.0907,-0.0909 -0.127,-0.1273 -0.0725,-0.0727 -0.1813,-0.1455 -0.3082,-0.2182 -0.1269,-0.0545 -0.2538,-0.0727 -0.3807,-0.0363 -0.1451,0.0363 -0.272,0.109 -0.417,0.2363 -0.417,0.3818 -0.834,0.7818 -1.2873,1.1273 -0.0725,0.0545 -0.1631,0.1091 -0.2719,0.1273 -0.0907,0.0363 -0.1813,0.0363 -0.2357,0.0181 -1.2873,-0.4727 -2.6108,-0.4363 -3.7349,-0.3272 -1.124,0.1091 -2.1212,0.5091 -2.9008,1.1636 -0.7977,0.6546 -1.2873,1.5273 -1.4142,2.4909 -0.1631,1.2546 -0.145,2.2 0.1088,3 0.2901,0.9273 0.8521,1.6546 1.7224,2.2 -0.4351,0.1273 -0.7977,0.2727 -1.0516,0.4909 -0.417,0.3091 -0.6527,0.7273 -0.7614,1.2728 -0.0907,0.4909 -0.0363,0.9272 0.145,1.3272 0.1632,0.3273 0.417,0.6182 0.7796,0.8546 -0.6164,0.4909 -1.0334,1.0909 -1.2147,1.7636 -0.1995,0.6727 -0.1813,1.4182 0.0362,2.2909 0.1632,0.7273 0.544,1.2728 1.106,1.6728 0.4532,0.309 1.0153,0.5272 1.813,0.7272 0.5258,0.1273 1.0516,0.1818 1.5592,0.2364 0.1995,0.0182 1.2873,0.0727 1.8312,0.0727 0.0725,0 0.1269,0 0.1813,0 h 0.0181 c 0.3264,0.0182 0.6165,-0.0182 0.9247,-0.0363 0.0906,0 0.1813,-0.0182 0.2719,-0.0182 1.4686,-0.0909 2.5927,-0.6182 3.3179,-1.5273 0.5076,-0.6364 0.7796,-1.4909 0.7796,-2.5091 -0.0182,-0.4 -0.0544,-0.7636 -0.1088,-1.1273 z m -4.0249,3 c -0.4533,0.0546 -0.9066,0.0728 -1.3961,0.1091 -0.2175,0.0182 -1.1603,-0.0182 -1.4323,-0.0363 -0.4714,-0.0364 -0.9427,-0.091 -1.4323,-0.1819 -0.3988,-0.0727 -0.7252,-0.2545 -0.9427,-0.5091 -0.2176,-0.2545 -0.3445,-0.6 -0.3808,-1.0545 -0.0362,-0.4909 0.0363,-0.9818 0.2357,-1.4 0.1813,-0.4 0.4714,-0.7091 0.7796,-0.8545 0.0725,-0.0364 0.1632,-0.0364 0.272,-0.0364 0.4714,0.0182 0.9428,0.0364 1.396,0.0727 h 0.0181 c 1.0697,0.0546 2.1757,0.0909 3.2998,0.2 0.4895,0.0364 0.834,0.2 1.0696,0.4546 0.2357,0.2545 0.3627,0.6 0.3989,1.0545 0.0363,0.5091 -0.0544,0.9455 -0.2719,1.3091 -0.2176,0.3455 -0.544,0.6 -0.9791,0.7455 -0.2357,0.0545 -0.4532,0.1272 -0.6345,0.1272 z M 19.6714,16.3453 c 0.5076,-0.5636 1.396,-0.8363 2.7195,-0.8363 0.0363,0 0.0725,0 0.0907,0 0.0725,0 0.145,0 0.1994,0 h 0.0544 c 0.2538,0 0.4895,-0.0182 0.7252,0.0363 h 0.0181 c 0.8159,0.1091 1.4142,0.3818 1.7949,0.8364 0.3808,0.4363 0.5621,1.0545 0.5621,1.8909 0,0.2182 0,0.4364 -0.0182,0.6545 -0.0181,0.5819 -0.145,1.0182 -0.4169,1.3637 -0.127,0.1636 -0.2901,0.3091 -0.4896,0.4363 -0.1994,0.1273 -0.4351,0.2182 -0.707,0.3091 -1.1967,0.3455 -2.4295,0.3273 -3.6442,-0.0545 -0.417,-0.1455 -0.7615,-0.3637 -0.9972,-0.6546 -0.2357,-0.2909 -0.3807,-0.6727 -0.4351,-1.1272 -0.0363,-0.3273 -0.0544,-0.6364 -0.0544,-0.9091 0,-0.8728 0.1994,-1.5091 0.5983,-1.9455 z"
       fill="#80a53f"
       id="path45" />
  </g>
  <defs
     id="defs52">
    <clipPath
       id="clip0_117_893">
      <rect
         width="192"
         height="40"
         fill="#80A53F"
         id="rect49" />
    </clipPath>
  </defs>
</svg>
