<?xml version="1.0" encoding="UTF-8" standalone="no"?>
<svg
   id="tresl-logo"
   width="90"
   height="90"
   viewBox="0 0 45 45"
   fill="none"
   version="1.1"
   sodipodi:docname="t.svg"
   inkscape:version="1.2.1 (8a69933317, 2022-10-28, custom)"
   xmlns:inkscape="http://www.inkscape.org/namespaces/inkscape"
   xmlns:sodipodi="http://sodipodi.sourceforge.net/DTD/sodipodi-0.dtd"
   xmlns="http://www.w3.org/2000/svg"
   xmlns:svg="http://www.w3.org/2000/svg">
  <sodipodi:namedview
     id="namedview37"
     pagecolor="#ffffff"
     bordercolor="#666666"
     borderopacity="1.0"
     inkscape:showpageshadow="2"
     inkscape:pageopacity="0.0"
     inkscape:pagecheckerboard="0"
     inkscape:deskcolor="#d1d1d1"
     showgrid="false"
     inkscape:zoom="8.7555556"
     inkscape:cx="45"
     inkscape:cy="63.274112"
     inkscape:window-width="1452"
     inkscape:window-height="991"
     inkscape:window-x="26"
     inkscape:window-y="23"
     inkscape:window-maximized="0"
     inkscape:current-layer="tresl-logo" />
  <g
     clip-path="url(#clip0_117_909)"
     id="g29"
     transform="scale(1.1242961)">
    <path
       d="M 19.9091,0 C 9.01818,0 0,9.01818 0,20.0909 0,31.1455 9.01818,40.1273 20.0909,40 31.1091,40 40,31.1091 40,20.0909 40.1273,9.05455 31.1091,0 19.9091,0 Z m 0,37.3636 c -9.5273,0 -17.32728,-7.7818 -17.32728,-17.2727 0,-9.5273 7.90908,-17.27272 17.39998,-17.27272 9.5273,0 17.3273,7.78182 17.3273,17.27272 0.0545,9.4909 -7.7273,17.2727 -17.4,17.2727 z"
       fill="#fab040"
       id="path25" />
    <path
       d="m 19.691,11.5274 c -3.8546,0 -7.091,-1.2363 -8.4182,-2.10904 C 11.1819,9.34563 11.0364,9.40018 11,9.50927 l -0.9272,2.36363 c -0.0364,0.0909 0,0.1818 0.0909,0.2364 2.7636,1.3454 5.6727,2.2727 7.9273,2.2727 v 20.1636 c 0,0.1091 0.0727,0.1818 0.1818,0.1818 h 3.6 c 0.1091,0 0.1818,-0.0727 0.1818,-0.1818 V 14.382 c 1.8727,0 5.5273,-1.1818 7.8,-2.2909 0.0909,-0.0364 0.1273,-0.1455 0.0909,-0.2364 L 29.0182,9.4729 C 28.9819,9.36381 28.8546,9.32745 28.7455,9.38199 27.2182,10.2547 23.5819,11.5274 19.691,11.5274 Z"
       fill="#fab040"
       id="path27" />
  </g>
  <defs
     id="defs34">
    <clipPath
       id="clip0_117_909">
      <rect
         width="124"
         height="40"
         fill="rgb(250, 176, 64)"
         id="rect31" />
    </clipPath>
  </defs>
</svg>
